<svg xmlns="http://www.w3.org/2000/svg" width="1100" height="520" viewBox="0 0 1100 520" font-family="system-ui, -apple-system, 'Segoe UI', sans-serif" font-size="11"><defs><clipPath id="clip1"><rect x="62" y="40" width="1024" height="438"/></clipPath></defs><rect width="1100" height="520" fill="#FAFAF9"/><rect x="62" y="40" width="1024" height="438" fill="#FAFAF9"/><g><line x1="123.73" y1="40" x2="123.73" y2="478" stroke="#E7E5E4" stroke-width="1"/><line x1="205.6" y1="40" x2="205.6" y2="478" stroke="#E7E5E4" stroke-width="1"/><line x1="287.46" y1="40" x2="287.46" y2="478" stroke="#E7E5E4" stroke-width="1"/><line x1="369.33" y1="40" x2="369.33" y2="478" stroke="#E7E5E4" stroke-width="1"/><line x1="451.2" y1="40" x2="451.2" y2="478" stroke="#E7E5E4" stroke-width="1"/><line x1="533.07" y1="40" x2="533.07" y2="478" stroke="#E7E5E4" stroke-width="1"/><line x1="614.93" y1="40" x2="614.93" y2="478" stroke="#E7E5E4" stroke-width="1"/><line x1="696.8" y1="40" x2="696.8" y2="478" stroke="#E7E5E4" stroke-width="1"/><line x1="778.67" y1="40" x2="778.67" y2="478" stroke="#E7E5E4" stroke-width="1"/><line x1="860.54" y1="40" x2="860.54" y2="478" stroke="#E7E5E4" stroke-width="1"/><line x1="942.4" y1="40" x2="942.4" y2="478" stroke="#E7E5E4" stroke-width="1"/><line x1="1024.27" y1="40" x2="1024.27" y2="478" stroke="#E7E5E4" stroke-width="1"/><line x1="62" y1="478" x2="1086" y2="478" stroke="#E7E5E4" stroke-width="1"/><line x1="62" y1="387.02" x2="1086" y2="387.02" stroke="#E7E5E4" stroke-width="1"/><line x1="62" y1="296.05" x2="1086" y2="296.05" stroke="#E7E5E4" stroke-width="1"/><line x1="62" y1="205.07" x2="1086" y2="205.07" stroke="#E7E5E4" stroke-width="1"/><line x1="62" y1="114.09" x2="1086" y2="114.09" stroke="#E7E5E4" stroke-width="1"/></g><g clip-path="url(#clip1)"><path d="M 90.98 158.12 A 3 3 0 0 1 93.98 155.12 L 120.73 155.12 A 3 3 0 0 1 123.73 158.12 L 123.73 475 A 3 3 0 0 1 120.73 478 L 93.98 478 A 3 3 0 0 1 90.98 475 Z" fill="rgb(51,65,85)" fill-opacity="0.85"/><path d="M 172.85 215.71 A 3 3 0 0 1 175.85 212.71 L 202.6 212.71 A 3 3 0 0 1 205.6 215.71 L 205.6 475 A 3 3 0 0 1 202.6 478 L 175.85 478 A 3 3 0 0 1 172.85 475 Z" fill="rgb(51,65,85)" fill-opacity="0.85"/><path d="M 254.72 55.76 A 3 3 0 0 1 257.72 52.76 L 284.46 52.76 A 3 3 0 0 1 287.46 55.76 L 287.46 475 A 3 3 0 0 1 284.46 478 L 257.72 478 A 3 3 0 0 1 254.72 475 Z" fill="rgb(51,65,85)" fill-opacity="0.85"/><path d="M 336.58 220.42 A 3 3 0 0 1 339.58 217.42 L 366.33 217.42 A 3 3 0 0 1 369.33 220.42 L 369.33 475 A 3 3 0 0 1 366.33 478 L 339.58 478 A 3 3 0 0 1 336.58 475 Z" fill="rgb(51,65,85)" fill-opacity="0.85"/><path d="M 418.45 291.15 A 3 3 0 0 1 421.45 288.15 L 448.2 288.15 A 3 3 0 0 1 451.2 291.15 L 451.2 475 A 3 3 0 0 1 448.2 478 L 421.45 478 A 3 3 0 0 1 418.45 475 Z" fill="rgb(51,65,85)" fill-opacity="0.85"/><path d="M 500.32 188.17 A 3 3 0 0 1 503.32 185.17 L 530.07 185.17 A 3 3 0 0 1 533.07 188.17 L 533.07 475 A 3 3 0 0 1 530.07 478 L 503.32 478 A 3 3 0 0 1 500.32 475 Z" fill="rgb(51,65,85)" fill-opacity="0.85"/><path d="M 582.19 236.18 A 3 3 0 0 1 585.19 233.18 L 611.93 233.18 A 3 3 0 0 1 614.93 236.18 L 614.93 475 A 3 3 0 0 1 611.93 478 L 585.19 478 A 3 3 0 0 1 582.19 475 Z" fill="rgb(51,65,85)" fill-opacity="0.85"/><path d="M 664.05 232.59 A 3 3 0 0 1 667.05 229.59 L 693.8 229.59 A 3 3 0 0 1 696.8 232.59 L 696.8 475 A 3 3 0 0 1 693.8 478 L 667.05 478 A 3 3 0 0 1 664.05 475 Z" fill="rgb(51,65,85)" fill-opacity="0.85"/><path d="M 745.92 267.69 A 3 3 0 0 1 748.92 264.69 L 775.67 264.69 A 3 3 0 0 1 778.67 267.69 L 778.67 475 A 3 3 0 0 1 775.67 478 L 748.92 478 A 3 3 0 0 1 745.92 475 Z" fill="rgb(51,65,85)" fill-opacity="0.85"/><path d="M 827.79 232.01 A 3 3 0 0 1 830.79 229.01 L 857.54 229.01 A 3 3 0 0 1 860.54 232.01 L 860.54 475 A 3 3 0 0 1 857.54 478 L 830.79 478 A 3 3 0 0 1 827.79 475 Z" fill="rgb(51,65,85)" fill-opacity="0.85"/><path d="M 909.66 211.06 A 3 3 0 0 1 912.66 208.06 L 939.4 208.06 A 3 3 0 0 1 942.4 211.06 L 942.4 475 A 3 3 0 0 1 939.4 478 L 912.66 478 A 3 3 0 0 1 909.66 475 Z" fill="rgb(51,65,85)" fill-opacity="0.85"/><path d="M 991.52 248.28 A 3 3 0 0 1 994.52 245.28 L 1021.27 245.28 A 3 3 0 0 1 1024.27 248.28 L 1024.27 475 A 3 3 0 0 1 1021.27 478 L 994.52 478 A 3 3 0 0 1 991.52 475 Z" fill="rgb(51,65,85)" fill-opacity="0.85"/><path d="M 123.73 147.65 A 3 3 0 0 1 126.73 144.65 L 153.48 144.65 A 3 3 0 0 1 156.48 147.65 L 156.48 475 A 3 3 0 0 1 153.48 478 L 126.73 478 A 3 3 0 0 1 123.73 475 Z" fill="rgb(225,29,72)" fill-opacity="0.85"/><path d="M 205.6 205.9 A 3 3 0 0 1 208.6 202.9 L 235.34 202.9 A 3 3 0 0 1 238.34 205.9 L 238.34 475 A 3 3 0 0 1 235.34 478 L 208.6 478 A 3 3 0 0 1 205.6 475 Z" fill="rgb(225,29,72)" fill-opacity="0.85"/><path d="M 287.46 57.7 A 3 3 0 0 1 290.46 54.7 L 317.21 54.7 A 3 3 0 0 1 320.21 57.7 L 320.21 475 A 3 3 0 0 1 317.21 478 L 290.46 478 A 3 3 0 0 1 287.46 475 Z" fill="rgb(225,29,72)" fill-opacity="0.85"/><path d="M 369.33 218.11 A 3 3 0 0 1 372.33 215.11 L 399.08 215.11 A 3 3 0 0 1 402.08 218.11 L 402.08 475 A 3 3 0 0 1 399.08 478 L 372.33 478 A 3 3 0 0 1 369.33 475 Z" fill="rgb(225,29,72)" fill-opacity="0.85"/><path d="M 451.2 286.08 A 3 3 0 0 1 454.2 283.08 L 480.95 283.08 A 3 3 0 0 1 483.95 286.08 L 483.95 475 A 3 3 0 0 1 480.95 478 L 454.2 478 A 3 3 0 0 1 451.2 475 Z" fill="rgb(225,29,72)" fill-opacity="0.85"/><path d="M 533.07 191.46 A 3 3 0 0 1 536.07 188.46 L 562.81 188.46 A 3 3 0 0 1 565.81 191.46 L 565.81 475 A 3 3 0 0 1 562.81 478 L 536.07 478 A 3 3 0 0 1 533.07 475 Z" fill="rgb(225,29,72)" fill-opacity="0.85"/><path d="M 614.93 236.15 A 3 3 0 0 1 617.93 233.15 L 644.68 233.15 A 3 3 0 0 1 647.68 236.15 L 647.68 475 A 3 3 0 0 1 644.68 478 L 617.93 478 A 3 3 0 0 1 614.93 475 Z" fill="rgb(225,29,72)" fill-opacity="0.85"/><path d="M 696.8 233.58 A 3 3 0 0 1 699.8 230.58 L 726.55 230.58 A 3 3 0 0 1 729.55 233.58 L 729.55 475 A 3 3 0 0 1 726.55 478 L 699.8 478 A 3 3 0 0 1 696.8 475 Z" fill="rgb(225,29,72)" fill-opacity="0.85"/><path d="M 778.67 267.86 A 3 3 0 0 1 781.67 264.86 L 808.42 264.86 A 3 3 0 0 1 811.42 267.86 L 811.42 475 A 3 3 0 0 1 808.42 478 L 781.67 478 A 3 3 0 0 1 778.67 475 Z" fill="rgb(225,29,72)" fill-opacity="0.85"/><path d="M 860.54 230.7 A 3 3 0 0 1 863.54 227.7 L 890.28 227.7 A 3 3 0 0 1 893.28 230.7 L 893.28 475 A 3 3 0 0 1 890.28 478 L 863.54 478 A 3 3 0 0 1 860.54 475 Z" fill="rgb(225,29,72)" fill-opacity="0.85"/><path d="M 942.4 208.7 A 3 3 0 0 1 945.4 205.7 L 972.15 205.7 A 3 3 0 0 1 975.15 208.7 L 975.15 475 A 3 3 0 0 1 972.15 478 L 945.4 478 A 3 3 0 0 1 942.4 475 Z" fill="rgb(225,29,72)" fill-opacity="0.85"/><path d="M 1024.27 251.91 A 3 3 0 0 1 1027.27 248.91 L 1054.02 248.91 A 3 3 0 0 1 1057.02 251.91 L 1057.02 475 A 3 3 0 0 1 1054.02 478 L 1027.27 478 A 3 3 0 0 1 1024.27 475 Z" fill="rgb(225,29,72)" fill-opacity="0.85"/></g><line x1="62" y1="40" x2="62" y2="478" stroke="#A8A29E" stroke-width="1"/><line x1="62" y1="478" x2="1086" y2="478" stroke="#A8A29E" stroke-width="1"/><line x1="123.73" y1="478" x2="123.73" y2="478" stroke="#A8A29E" stroke-width="1"/><line x1="205.6" y1="478" x2="205.6" y2="478" stroke="#A8A29E" stroke-width="1"/><line x1="287.46" y1="478" x2="287.46" y2="478" stroke="#A8A29E" stroke-width="1"/><line x1="369.33" y1="478" x2="369.33" y2="478" stroke="#A8A29E" stroke-width="1"/><line x1="451.2" y1="478" x2="451.2" y2="478" stroke="#A8A29E" stroke-width="1"/><line x1="533.07" y1="478" x2="533.07" y2="478" stroke="#A8A29E" stroke-width="1"/><line x1="614.93" y1="478" x2="614.93" y2="478" stroke="#A8A29E" stroke-width="1"/><line x1="696.8" y1="478" x2="696.8" y2="478" stroke="#A8A29E" stroke-width="1"/><line x1="778.67" y1="478" x2="778.67" y2="478" stroke="#A8A29E" stroke-width="1"/><line x1="860.54" y1="478" x2="860.54" y2="478" stroke="#A8A29E" stroke-width="1"/><line x1="942.4" y1="478" x2="942.4" y2="478" stroke="#A8A29E" stroke-width="1"/><line x1="1024.27" y1="478" x2="1024.27" y2="478" stroke="#A8A29E" stroke-width="1"/><line x1="62" y1="478" x2="62" y2="478" stroke="#A8A29E" stroke-width="1"/><line x1="62" y1="387.02" x2="62" y2="387.02" stroke="#A8A29E" stroke-width="1"/><line x1="62" y1="296.05" x2="62" y2="296.05" stroke="#A8A29E" stroke-width="1"/><line x1="62" y1="205.07" x2="62" y2="205.07" stroke="#A8A29E" stroke-width="1"/><line x1="62" y1="114.09" x2="62" y2="114.09" stroke="#A8A29E" stroke-width="1"/><g fill="#1C1917"><text x="123.73" y="494" fill="#1C1917" font-size="11" text-anchor="middle">android</text><text x="205.6" y="494" fill="#1C1917" font-size="11" text-anchor="middle">english</text><text x="287.46" y="494" fill="#1C1917" font-size="11" text-anchor="middle">gaming</text><text x="369.33" y="494" fill="#1C1917" font-size="11" text-anchor="middle">gis</text><text x="451.2" y="494" fill="#1C1917" font-size="11" text-anchor="middle">mathematica</text><text x="533.07" y="494" fill="#1C1917" font-size="11" text-anchor="middle">physics</text><text x="614.93" y="494" fill="#1C1917" font-size="11" text-anchor="middle">programmers</text><text x="696.8" y="494" fill="#1C1917" font-size="11" text-anchor="middle">stats</text><text x="778.67" y="494" fill="#1C1917" font-size="11" text-anchor="middle">tex</text><text x="860.54" y="494" fill="#1C1917" font-size="11" text-anchor="middle">unix</text><text x="942.4" y="494" fill="#1C1917" font-size="11" text-anchor="middle">webmasters</text><text x="1024.27" y="494" fill="#1C1917" font-size="11" text-anchor="middle">wordpress</text><text x="54" y="482" fill="#1C1917" font-size="11" text-anchor="end">0.0</text><text x="54" y="391.02" fill="#1C1917" font-size="11" text-anchor="end">0.1</text><text x="54" y="300.05" fill="#1C1917" font-size="11" text-anchor="end">0.2</text><text x="54" y="209.07" fill="#1C1917" font-size="11" text-anchor="end">0.3</text><text x="54" y="118.09" fill="#1C1917" font-size="11" text-anchor="end">0.4</text></g><text x="550" y="28" text-anchor="middle" font-size="14" font-weight="400" fill="#1C1917">BEIR CQADupStack: labeled retrieval quality</text><text x="574" y="511.84" text-anchor="middle" font-size="12" font-weight="400" fill="#1C1917">forum (tenant)</text><text x="29.01" y="259" text-anchor="middle" font-size="12" font-weight="400" fill="#1C1917" transform="rotate(-90 29.01 259)">nDCG@10 (duplicate-question qrels)</text><g clip-path="url(#clip1)"><rect x="960.65" y="46" width="119.35" height="36.96" rx="0" fill="rgba(128,128,128,0.08)" stroke="#cccccc" stroke-opacity="0.08" stroke-width="1"/><rect x="965.05" y="52.06" width="22.0" height="8" rx="2" fill="#334155"/><text x="995.85" y="59.42" font-size="11" fill="#1C1917">Global IDF</text><rect x="965.05" y="68.89" width="22.0" height="8" rx="2" fill="#E11D48"/><text x="995.85" y="76.25" font-size="11" fill="#1C1917">Per-tenant IDF</text></g></svg>