<svg xmlns="http://www.w3.org/2000/svg" width="1100" height="520" viewBox="0 0 1100 520" font-family="system-ui, -apple-system, 'Segoe UI', sans-serif" font-size="11"><defs><clipPath id="clip1"><rect x="62" y="40" width="1024" height="438"/></clipPath></defs><rect width="1100" height="520" fill="#FAFAF9"/><rect x="62" y="40" width="1024" height="438" fill="#FAFAF9"/><g><line x1="305.66" y1="40" x2="305.66" y2="478" stroke="#E7E5E4" stroke-width="1"/><line x1="842.34" y1="40" x2="842.34" y2="478" stroke="#E7E5E4" stroke-width="1"/><line x1="62" y1="478" x2="1086" y2="478" stroke="#E7E5E4" stroke-width="1"/><line x1="62" y1="404.38" x2="1086" y2="404.38" stroke="#E7E5E4" stroke-width="1"/><line x1="62" y1="330.76" x2="1086" y2="330.76" stroke="#E7E5E4" stroke-width="1"/><line x1="62" y1="257.13" x2="1086" y2="257.13" stroke="#E7E5E4" stroke-width="1"/><line x1="62" y1="183.51" x2="1086" y2="183.51" stroke="#E7E5E4" stroke-width="1"/><line x1="62" y1="109.89" x2="1086" y2="109.89" stroke="#E7E5E4" stroke-width="1"/></g><g clip-path="url(#clip1)"><path d="M 90.98 309.78 A 3 3 0 0 1 93.98 306.78 L 302.66 306.78 A 3 3 0 0 1 305.66 309.78 L 305.66 475 A 3 3 0 0 1 302.66 478 L 93.98 478 A 3 3 0 0 1 90.98 475 Z" fill="rgb(51,65,85)" fill-opacity="0.85"/><path d="M 627.67 130.76 A 3 3 0 0 1 630.67 127.76 L 839.34 127.76 A 3 3 0 0 1 842.34 130.76 L 842.34 475 A 3 3 0 0 1 839.34 478 L 630.67 478 A 3 3 0 0 1 627.67 475 Z" fill="rgb(51,65,85)" fill-opacity="0.85"/><path d="M 305.66 244.34 A 3 3 0 0 1 308.66 241.34 L 517.33 241.34 A 3 3 0 0 1 520.33 244.34 L 520.33 475 A 3 3 0 0 1 517.33 478 L 308.66 478 A 3 3 0 0 1 305.66 475 Z" fill="rgb(225,29,72)" fill-opacity="0.85"/><path d="M 842.34 55.76 A 3 3 0 0 1 845.34 52.76 L 1054.02 52.76 A 3 3 0 0 1 1057.02 55.76 L 1057.02 475 A 3 3 0 0 1 1054.02 478 L 845.34 478 A 3 3 0 0 1 842.34 475 Z" fill="rgb(225,29,72)" fill-opacity="0.85"/></g><line x1="62" y1="40" x2="62" y2="478" stroke="#A8A29E" stroke-width="1"/><line x1="62" y1="478" x2="1086" y2="478" stroke="#A8A29E" stroke-width="1"/><line x1="305.66" y1="478" x2="305.66" y2="478" stroke="#A8A29E" stroke-width="1"/><line x1="842.34" y1="478" x2="842.34" y2="478" stroke="#A8A29E" stroke-width="1"/><line x1="62" y1="478" x2="62" y2="478" stroke="#A8A29E" stroke-width="1"/><line x1="62" y1="404.38" x2="62" y2="404.38" stroke="#A8A29E" stroke-width="1"/><line x1="62" y1="330.76" x2="62" y2="330.76" stroke="#A8A29E" stroke-width="1"/><line x1="62" y1="257.13" x2="62" y2="257.13" stroke="#A8A29E" stroke-width="1"/><line x1="62" y1="183.51" x2="62" y2="183.51" stroke="#A8A29E" stroke-width="1"/><line x1="62" y1="109.89" x2="62" y2="109.89" stroke="#A8A29E" stroke-width="1"/><g fill="#1C1917"><text x="305.66" y="494" fill="#1C1917" font-size="11" text-anchor="middle">Global IDF</text><text x="842.34" y="494" fill="#1C1917" font-size="11" text-anchor="middle">Per-tenant IDF</text><text x="54" y="482" fill="#1C1917" font-size="11" text-anchor="end">0</text><text x="54" y="408.38" fill="#1C1917" font-size="11" text-anchor="end">1</text><text x="54" y="334.76" fill="#1C1917" font-size="11" text-anchor="end">2</text><text x="54" y="261.13" fill="#1C1917" font-size="11" text-anchor="end">3</text><text x="54" y="187.51" fill="#1C1917" font-size="11" text-anchor="end">4</text><text x="54" y="113.89" fill="#1C1917" font-size="11" text-anchor="end">5</text></g><text x="550" y="28" text-anchor="middle" font-size="14" font-weight="400" fill="#1C1917">Latency: same query, same filter, only IDF corpus changes</text><text x="39.33" y="259" text-anchor="middle" font-size="12" font-weight="400" fill="#1C1917" transform="rotate(-90 39.33 259)">client-side latency (ms)</text><g clip-path="url(#clip1)"><rect x="1019.78" y="46" width="60.22" height="36.96" rx="0" fill="rgba(128,128,128,0.08)" stroke="#cccccc" stroke-opacity="0.08" stroke-width="1"/><rect x="1024.18" y="52.06" width="22.0" height="8" rx="2" fill="#334155"/><text x="1054.98" y="59.42" font-size="11" fill="#1C1917">p50</text><rect x="1024.18" y="68.89" width="22.0" height="8" rx="2" fill="#E11D48"/><text x="1054.98" y="76.25" font-size="11" fill="#1C1917">p95</text></g></svg>